# xmcd
#
# Track frame offsets: 
#        150
#        9591
#        21966
#        37866
#        54253
#        65203
#        73278
#        85830
#        99776
#        115376
#        131727
#        145350
#
# Disc length: 2347 seconds
#
# Revision: 0
# Processed by: cddbd v1.5.2PL0 Copyright (c) Steve Scherf et al.
# Submitted via: ExactAudioCopy v1.3
#
DISCID=a609290c
DTITLE=Whiskeydick - From The Devil's Boots
DYEAR=2014
DGENRE=Heavy Metal Honky Tonk
TTITLE0=Made in the USA
TTITLE1=Christina
TTITLE2=Is that you This is me
TTITLE3=He!p
TTITLE4=18 Wheels of Hell
TTITLE5=Workin' in the GraveYard
TTITLE6=Honky Tonk Zone
TTITLE7=YEEHAW
TTITLE8=Oklahoma Girl
TTITLE9=Far Too Gone
TTITLE10=Lonesome Carnie
TTITLE11=HomeTown
EXTD=
EXTT0=
EXTT1=
EXTT2=
EXTT3=
EXTT4=
EXTT5=
EXTT6=
EXTT7=
EXTT8=
EXTT9=
EXTT10=
EXTT11=
PLAYORDER=
